:SAMPLES-PER-SECOND 24
:FULLY-SPECIFIED
:DEGREES
150
root  5.2893 39.4038 21.2502 4.74069 -37.9709 1.80716
RightUpLeg  -9.65908 1.98274 -12.2401
RightLeg  29.5571 -1.77291 -1.32041
RightFoot  -12.8466 0.0756288 12.3764
RightToes  -2.08645e-008 3.77894e-005 6.81332e-007
Spine  -3.32252 -1.531 -4.17733
Spine1  12.2308 -2.41136 2.88491
HEad  -38.277 25.2639 -18.253
LeftShoulder1  7.49533 -13.2746 -38.5432
LeftArm  6.64717 15.4585 -32.664
LeftForeArm  173.455 -66.9222 -157.477
LeftHand  -0.376591 -3.19048 5.33857
RightShoulder  3.80651 6.44948 32.3592
RightArm  15.2181 -26.157 31.4758
RightForeArm  149.393 76.3625 136.531
RightHand  -0.656169 8.86692 -5.7137
LeftUpLeg  -4.54236 0.416896 7.73006
LeftLeg  20.5265 7.82227 3.55929
LeftFoot  -7.72857 0.661351 -19.3506
LeftToes  1.24767e-006 1.47042e-008 1.32732e-009
151
root  5.33617 40.9355 21.2843 5.44278 -35.4224 1.69602
RightUpLeg  -8.67435 -0.490958 -11.9725
RightLeg  24.7895 -2.37186 -1.41373
RightFoot  -1.966 -0.944318 11.4325
RightToes  -2.08645e-008 3.77894e-005 6.81332e-007
Spine  -4.45741 -1.72123 -5.27521
Spine1  10.439 -2.65334 4.10371
HEad  -32.9691 24.9647 -16.5666
LeftShoulder1  7.24371 -13.0603 -37.6381
LeftArm  7.38903 26.4638 -35.0434
LeftForeArm  168.37 -65.8697 -157.963
LeftHand  -0.360478 -2.99513 5.22528
RightShoulder  3.79043 6.44607 32.2082
RightArm  16.317 -31.9351 33.3498
RightForeArm  154.546 74.4998 142.745
RightHand  -0.376876 9.91039 -3.28722
LeftUpLeg  -4.09913 4.18002 8.64193
LeftLeg  13.9603 2.25229 1.05709
LeftFoot  4.50472 2.76519 -19.9783
LeftToes  1.24767e-006 1.47042e-008 1.32732e-009
152
root  5.40866 41.9467 21.2646 6.91138 -33.6848 1.36131
RightUpLeg  -9.26558 -2.43547 -11.3743
RightLeg  21.6961 -2.50633 -1.31683
RightFoot  4.52026 -1.41775 10.3173
RightToes  -2.08645e-008 3.77894e-005 6.81332e-007
Spine  -7.0632 -1.19514 -3.58421
Spine1  9.85392 -1.37789 1.72354
HEad  -28.9705 23.7588 -14.974
LeftShoulder1  7.04971 -12.9548 -36.7706
LeftArm  9.23908 32.8995 -32.3881
LeftForeArm  164.44 -63.6977 -159.508
LeftHand  -0.167271 -3.35052 2.46057
RightShoulder  4.02905 6.71972 33.5203
RightArm  15.4278 -35.8421 32.4219
RightForeArm  163.409 71.4262 150.314
RightHand  0.264781 11.8462 1.35801
LeftUpLeg  -5.88872 7.54704 9.62023
LeftLeg  11.223 0.283637 -0.213763
LeftFoot  14.7417 4.01692 -17.674
LeftToes  1.24767e-006 1.47042e-008 1.32732e-009
153
root  5.64273 42.2954 21.1524 7.19128 -32.5202 0.196672
RightUpLeg  -8.87501 -1.96947 -10.2129
RightLeg  20.2925 -0.353668 -0.362178
RightFoot  5.92036 -1.8636 12.4976
RightToes  -2.08645e-008 3.77894e-005 6.81332e-007
Spine  -7.73549 -0.367857 -0.465166
Spine1  10.4406 0.0248823 -1.08831
HEad  -28.6084 22.2786 -15.5832
LeftShoulder1  6.96891 -12.924 -36.3729
LeftArm  10.0777 35.1738 -27.4946
LeftForeArm  164.463 -61.2155 -161.464
LeftHand  0.0482058 -3.90264 -0.333566
RightShoulder  4.07786 6.80585 33.6698
RightArm  14.804 -34.753 31.1198
RightForeArm  166.378 69.5157 153.563
RightHand  0.148 10.8928 0.629709
LeftUpLeg  -6.93095 7.08103 10.3772
LeftLeg  11.5594 2.30803 0.605309
LeftFoot  17.4313 3.79473 -15.1306
LeftToes  1.24767e-006 1.47042e-008 1.32732e-009
154
root  5.93015 42.0784 20.9591 6.11069 -31.1367 -0.95406
RightUpLeg  -7.4391 0.0135161 -8.83352
RightLeg  20.3832 1.39933 0.361971
RightFoot  5.0023 -1.92853 13.6117
RightToes  -2.08645e-008 3.77894e-005 6.81332e-007
Spine  -5.95722 0.103468 1.2083
Spine1  10.3375 0.62745 -1.8717
HEad  -28.372 21.0248 -16.2143
LeftShoulder1  6.4706 -12.4185 -34.6243
LeftArm  10.0343 35.1496 -25.5094
LeftForeArm  165.635 -60.6351 -161.992
LeftHand  0.0206342 -3.93522 0.00952644
RightShoulder  3.80895 6.55684 31.9724
RightArm  15.9503 -30.6342 30.1656
RightForeArm  160.588 69.4039 152.95
RightHand  -0.302367 8.29399 -2.93881
LeftUpLeg  -6.98441 4.45729 10.9371
LeftLeg  13.465 1.87796 1.06151
LeftFoot  14.3024 3.42629 -15.3672
LeftToes  1.24767e-006 1.47042e-008 1.32732e-009
155
root  6.17152 41.1893 20.7799 5.02368 -29.7119 -1.01339
RightUpLeg  -6.80312 1.43499 -8.26583
RightLeg  22.9611 0.156718 -0.154947
RightFoot  -0.697014 -1.11139 11.7564
RightToes  -2.08645e-008 3.77894e-005 6.81332e-007
Spine  -4.52097 0.47053 0.87454
Spine1  9.36692 0.985655 -1.55772
HEad  -27.334 19.7815 -15.6234
LeftShoulder1  5.89496 -11.8247 -32.4643
LeftArm  9.33521 33.6235 -24.8382
LeftForeArm  165.008 -62.0302 -160.918
LeftHand  -0.0479608 -3.36057 0.8807
RightShoulder  3.61992 6.36478 30.784
RightArm  16.0967 -26.2666 28.0941
RightForeArm  154.798 70.7447 150.181
RightHand  -0.423865 7.51718 -4.16318
LeftUpLeg  -7.46249 0.667982 10.507
LeftLeg  16.7466 1.62653 0.964481
LeftFoot  6.4081 2.55234 -16.4918
LeftToes  1.24767e-006 1.47042e-008 1.32732e-009
156
root  6.45314 39.7706 20.6016 3.97708 -28.4999 -0.789686
RightUpLeg  -6.26214 1.88105 -8.25653
RightLeg  26.4731 -2.41865 -1.53873
RightFoot  -10.9967 -0.10046 10.2972
RightToes  -2.08645e-008 3.77894e-005 6.81332e-007
Spine  -3.45793 0.850791 1.11881
Spine1  8.86333 1.53544 -2.24286
HEad  -27.5891 18.301 -15.567
LeftShoulder1  5.87504 -11.7267 -32.5793
LeftArm  7.86894 29.3365 -22.175
LeftForeArm  162.251 -64.9653 -158.171
LeftHand  -0.145991 -3.02918 2.23089
RightShoulder  3.56655 6.30313 30.4641
RightArm  13.7964 -21.7921 26.5275
RightForeArm  150.299 74.4538 142.027
RightHand  -0.447297 8.4199 -4.1337
LeftUpLeg  -8.47241 -2.9673 9.5705
LeftLeg  21.9337 4.39789 2.29264
LeftFoot  -5.1777 0.895752 -15.7694
LeftToes  1.24767e-006 1.47042e-008 1.32732e-009
157
root  6.89198 38.5136 20.355 2.48279 -26.9491 -1.39038
RightUpLeg  -5.1124 2.46146 -7.61023
RightLeg  29.2906 -4.68049 -3.07334
RightFoot  -18.8732 0.508319 9.66299
RightToes  -2.08645e-008 3.77894e-005 6.81332e-007
Spine  -0.98279 1.05229 3.74887
Spine1  9.28523 2.27917 -4.60947
HEad  -29.9671 16.1409 -16.1611
LeftShoulder1  6.45116 -12.1953 -35.0723
LeftArm  5.65977 22.1288 -19.3927
LeftForeArm  159.971 -69.5674 -152.645
LeftHand  -0.360276 -2.45015 5.54352
RightShoulder  3.52081 6.18576 30.4332
RightArm  10.1222 -18.8852 27.0588
RightForeArm  136.84 78.2768 125.573
RightHand  -0.523059 8.4247 -4.76171
LeftUpLeg  -9.77687 -6.31429 9.08305
LeftLeg  27.9833 7.57215 4.69745
LeftFoot  -14.1521 -0.239643 -13.3923
LeftToes  1.24767e-006 1.47042e-008 1.32732e-009
158
root  7.38301 37.9195 20.1633 1.30408 -25.0415 -1.87019
RightUpLeg  -4.06814 2.73779 -7.1307
RightLeg  30.5107 -6.80639 -4.55013
RightFoot  -21.6325 0.660062 8.94648
RightToes  -2.08645e-008 3.77894e-005 6.81332e-007
Spine  0.0953248 1.14069 5.72125
Spine1  11.7806 2.8857 -6.32296
HEad  -33.9083 13.656 -16.2417
LeftShoulder1  7.22378 -12.9752 -37.7407
LeftArm  1.00838 16.3411 -20.7142
LeftForeArm  158.505 -74.3189 -143.944
LeftHand  -0.450675 -1.35999 7.91051
RightShoulder  3.56727 6.17959 30.9438
RightArm  5.95194 -19.6713 28.767
RightForeArm  122.186 79.5967 112.383
RightHand  -0.659982 7.50178 -6.28945
LeftUpLeg  -10.9649 -9.29035 8.37221
LeftLeg  31.6883 9.20983 6.43295
LeftFoot  -17.4671 -0.504376 -11.3461
LeftToes  1.24767e-006 1.47042e-008 1.32732e-009
159
root  7.8169 38.0775 20.1779 1.60541 -24.0595 -1.63084
RightUpLeg  -3.39588 2.59438 -7.76416
RightLeg  28.1079 -8.1511 -4.92278
RightFoot  -20.472 0.61119 9.41148
RightToes  -2.08645e-008 3.77894e-005 6.81332e-007
Spine  -0.60508 1.18689 5.40947
Spine1  12.7553 2.87823 -6.23731
HEad  -36.5322 12.8788 -15.8351
LeftShoulder1  7.56833 -13.3386 -38.7972
LeftArm  -5.64891 18.0142 -27.1287
LeftForeArm  159.988 -75.4513 -141.373
LeftHand  -0.450309 -1.15077 8.13807
RightShoulder  3.76572 6.38935 32.18
RightArm  3.68015 -23.6061 30.3413
RightForeArm  122.208 79.4851 113.271
RightHand  -0.743472 6.94566 -7.33208
LeftUpLeg  -10.9686 -10.4353 7.41369
LeftLeg  29.8612 10.0451 6.52477
LeftFoot  -16.9694 -0.412072 -10.4214
LeftToes  1.24767e-006 1.47042e-008 1.32732e-009
160
root  8.21293 38.7794 20.3411 3.7251 -25.0729 -1.34373
RightUpLeg  -3.46294 3.79398 -8.70516
RightLeg  21.9736 -9.05843 -4.15409
RightFoot  -15.7986 0.267814 9.58387
RightToes  -2.08645e-008 3.77894e-005 6.81332e-007
Spine  -2.30514 1.30811 4.56536
Spine1  11.0768 2.60264 -5.3108
HEad  -36.1056 14.1698 -15.5699
LeftShoulder1  7.43722 -13.1795 -38.4531
LeftArm  -10.8625 25.1615 -35.3559
LeftForeArm  160.558 -72.8385 -147.373
LeftHand  -0.451597 -0.638852 8.83139
RightShoulder  3.86793 6.49978 32.782
RightArm  4.60201 -28.2158 31.918
RightForeArm  131.093 79.0126 119.818
RightHand  -0.671519 7.94205 -6.19443
LeftUpLeg  -9.68489 -8.9672 6.88088
LeftLeg  22.3862 10.5031 4.92574
LeftFoot  -13.6945 -0.115886 -9.50079
LeftToes  1.24767e-006 1.47042e-008 1.32732e-009
161
root  8.55967 39.4708 20.4977 6.67667 -27.61 -1.22361
RightUpLeg  -4.91232 4.48426 -9.35581
RightLeg  16.0425 -8.75733 -3.63261
RightFoot  -10.5143 -0.122143 7.68651
RightToes  -2.08645e-008 3.77894e-005 6.81332e-007
Spine  -4.62256 1.68161 4.45958
Spine1  9.34056 2.82796 -5.59313
HEad  -35.1632 15.6609 -15.07
LeftShoulder1  7.14497 -12.884 -37.5129
LeftArm  -12.0616 31.4466 -40.1617
LeftForeArm  156.997 -70.2119 -151.339
LeftHand  -0.476341 -0.463958 9.5396
RightShoulder  3.95567 6.60142 33.2601
RightArm  7.22933 -31.7214 31.9133
RightForeArm  139.861 78.2267 126.812
RightHand  -0.498308 8.58719 -4.5089
LeftUpLeg  -7.99071 -2.59631 5.77112
LeftLeg  12.9287 7.37676 3.67337
LeftFoot  -9.55303 0.182003 -8.14465
LeftToes  1.24767e-006 1.47042e-008 1.32732e-009
162
root  8.90313 39.7631 20.4992 8.64755 -30.3036 -1.15949
RightUpLeg  -7.06192 2.44099 -9.63787
RightLeg  14.4248 -9.52925 -3.60307
RightFoot  -8.58898 -0.190481 5.4936
RightToes  -2.08645e-008 3.77894e-005 6.81332e-007
Spine  -4.96343 1.80378 4.0652
Spine1  7.81326 2.9001 -6.01697
HEad  -36.8713 16.4177 -15.007
LeftShoulder1  6.78363 -12.6285 -36.0085
LeftArm  -10.0595 35.2768 -40.5905
LeftForeArm  160.046 -67.9534 -154.741
LeftHand  -0.41282 -1.29512 7.32366
RightShoulder  4.0182 6.68604 33.5475
RightArm  10.7322 -33.0702 29.89
RightForeArm  147.834 76.6681 135.162
RightHand  -0.257898 8.91637 -2.47804
LeftUpLeg  -6.64912 1.52133 5.06797
LeftLeg  6.55184 6.58312 2.69555
LeftFoot  -8.13821 0.268795 -7.86525
LeftToes  1.24767e-006 1.47042e-008 1.32732e-009
163
root  9.29627 39.761 20.2627 8.57629 -32.5431 -0.59909
RightUpLeg  -9.16766 -2.69991 -9.35163
RightLeg  17.9574 -13.5988 -5.05681
RightFoot  -9.38736 -0.122873 3.42019
RightToes  -2.08645e-008 3.77894e-005 6.81332e-007
Spine  -2.25961 1.28894 1.03709
Spine1  6.44167 1.79984 -3.06843
HEad  -40.8896 17.0023 -16.6699
LeftShoulder1  6.7053 -12.6674 -35.4356
LeftArm  -6.39798 36.1347 -36.8961
LeftForeArm  164.121 -66.3845 -156.987
LeftHand  -0.324099 -1.48074 5.64183
RightShoulder  3.89804 6.60992 32.6561
RightArm  13.7392 -31.0883 28.3373
RightForeArm  151.882 75.6023 139.418
RightHand  -0.334911 8.84237 -3.1147
LeftUpLeg  -5.70851 2.23953 4.63452
LeftLeg  4.16052 8.4318 1.50648
LeftFoot  -8.91411 0.244352 -8.99778
LeftToes  1.24767e-006 1.47042e-008 1.32732e-009
164
root  9.61791 39.6884 19.9298 7.45587 -35.0951 1.02641
RightUpLeg  -12.3585 -10.0648 -8.43256
RightLeg  24.8862 -16.7815 -8.53313
RightFoot  -10.2874 -0.0802223 1.11681
RightToes  -2.08645e-008 3.77894e-005 6.81332e-007
Spine  0.0871676 0.857323 -3.34147
Spine1  6.72128 0.551712 1.05837
HEad  -44.5128 17.525 -18.7739
LeftShoulder1  7.09098 -13.0585 -36.7427
LeftArm  -0.787846 32.7492 -28.4675
LeftForeArm  160.626 -67.8553 -154.925
LeftHand  -0.377356 -1.60497 6.42138
RightShoulder  3.73679 6.477 31.5507
RightArm  13.3967 -27.4336 29.6281
RightForeArm  146.813 77.4849 131.798
RightHand  -0.263436 9.45836 -2.45427
LeftUpLeg  -5.40871 2.44252 3.42075
LeftLeg  3.57916 10.9325 0.499
LeftFoot  -8.98507 0.247157 -9.39619
LeftToes  1.24767e-006 1.47042e-008 1.32732e-009
